<?xml version="1.0" standalone="no"?>
<!DOCTYPE svg PUBLIC "-//W3C//DTD SVG 20010904//EN"
 "http://www.w3.org/TR/2001/REC-SVG-20010904/DTD/svg10.dtd">
<svg version="1.0" xmlns="http://www.w3.org/2000/svg"
 width="290.000000pt" height="264.000000pt" viewBox="0 0 290.000000 264.000000"
 preserveAspectRatio="xMidYMid meet">
<g transform="translate(0.000000,264.000000) scale(0.050000,-0.050000)"
fill="#000000" stroke="none">
<path d="M551 4723 c-18 -35 -81 -145 -141 -244 l-108 -181 401 -694 c221
-382 669 -1157 997 -1724 327 -566 652 -1131 722 -1255 l128 -225 280 1 280 0
243 424 c133 234 323 565 422 735 98 171 482 837 854 1480 371 644 687 1189
701 1212 24 38 14 65 -105 275 l-133 233 -311 0 c-171 0 -1185 6 -2254 13
l-1943 13 -33 -63z m2684 -378 c229 -399 450 -782 486 -839 24 -38 21 -55 -30
-150 -98 -184 -118 -196 -178 -101 -71 112 -514 873 -583 1000 l-56 105 -797
0 c-586 0 -797 -6 -797 -23 0 -19 302 -560 456 -817 l42 -70 -74 -128 c-112
-194 -72 -236 -549 588 -401 693 -414 718 -390 734 14 8 535 16 1157 16 l1133
0 180 -315z m1858 185 c36 -66 67 -131 67 -145 0 -20 -193 -25 -899 -25 l-899
0 -81 136 c-45 75 -81 143 -81 150 0 8 411 12 913 9 l913 -5 67 -120z m-3983
-779 c264 -456 486 -830 492 -830 13 -1 485 800 509 864 19 50 329 53 329 2 0
-38 -78 -182 -413 -764 l-246 -427 388 -673 c213 -370 399 -673 412 -673 26 0
72 70 361 555 l187 315 132 0 c178 0 191 -18 114 -158 -328 -594 -773 -1342
-798 -1342 -15 0 -469 777 -1293 2210 -126 220 -358 621 -514 890 -156 270
-295 511 -308 536 -24 45 109 324 154 324 8 0 230 -373 494 -829z m1796 309
c363 -627 534 -932 534 -954 0 -19 -44 -26 -165 -25 l-165 1 -128 220 c-71
121 -135 224 -143 229 -26 16 -539 -878 -539 -939 0 -19 104 -214 230 -434
127 -219 230 -407 230 -417 0 -25 -136 -256 -159 -270 -30 -19 -691 1095 -674
1137 4 12 171 305 370 650 200 345 363 634 363 643 0 33 -83 39 -547 39 l-485
0 -75 129 c-42 72 -70 139 -63 151 8 14 228 19 665 15 l653 -5 98 -170z m2274
171 c0 -5 -62 -115 -137 -245 -75 -130 -222 -384 -327 -566 -581 -1009 -1626
-2816 -1651 -2855 -26 -39 -46 -45 -162 -44 -228 3 -229 -20 25 419 124 215
318 552 431 750 114 198 228 394 254 435 26 41 47 79 47 85 0 5 -234 10 -519
10 l-519 0 -81 136 c-45 75 -81 147 -81 160 0 18 171 24 696 24 l695 0 347
605 c191 333 368 639 394 680 68 105 68 105 -137 105 -102 0 -335 2 -519 5
l-334 5 -81 136 c-45 75 -81 143 -81 150 0 8 392 14 870 14 479 0 870 -4 870
-9z m-3220 -438 c0 -34 -98 -213 -117 -213 -16 0 -123 188 -123 218 0 14 46
22 120 22 88 0 120 -7 120 -27z m1980 8 c0 -29 -107 -201 -125 -201 -24 0
-135 183 -123 203 14 24 248 22 248 -2z m476 -28 c-3 -15 -145 -271 -316 -570
l-310 -542 -655 0 c-438 -1 -655 6 -655 20 0 43 101 218 144 248 38 26 120 31
516 31 l471 0 228 395 c125 217 236 406 247 420 28 37 339 35 330 -2z m-1495
-596 c52 -101 56 -97 -91 -97 -145 0 -142 -2 -98 86 78 154 115 156 189 11z
m39 -1090 c0 -49 -97 -207 -128 -207 -32 0 -139 192 -122 220 23 37 250 25
250 -13z"/>
</g>
</svg>
